<svg xmlns="http://www.w3.org/2000/svg" width="128" height="128" viewBox="0 0 128 128">
  <defs>
    <linearGradient id="wood" x1="0" y1="0" x2="0" y2="1"><stop offset="0" stop-color="#b8875a"/><stop offset="1" stop-color="#8c5f37"/></linearGradient>
    <linearGradient id="clip" x1="0" y1="0" x2="0" y2="1"><stop offset="0" stop-color="#f2f2f2"/><stop offset=".5" stop-color="#c4c4c4"/><stop offset="1" stop-color="#9a9a9a"/></linearGradient>
    <linearGradient id="paper" x1="0" y1="0" x2="0" y2="1"><stop offset="0" stop-color="#ffffff"/><stop offset="1" stop-color="#ecebe6"/></linearGradient>
  </defs>
  <rect x="16" y="14" width="96" height="108" rx="9" fill="url(#wood)" stroke="#6b4423" stroke-width="2"/>
  <rect x="25" y="26" width="78" height="88" rx="3" fill="url(#paper)" stroke="#c9c6bb" stroke-width="1.5"/>
  <path d="M44 22 q0 -12 20 -12 q20 0 20 12 v10 h-40 z" fill="url(#clip)" stroke="#6e6e6e" stroke-width="2"/>
  <circle cx="64" cy="16" r="3.5" fill="#8c5f37" stroke="#6e6e6e" stroke-width="1.5"/>
  <rect x="33" y="44" width="42" height="5" rx="2.5" fill="#4a4a4a"/>
  <rect x="43" y="56" width="48" height="4" rx="2" fill="#b9b7b0"/>
  <rect x="43" y="66" width="40" height="4" rx="2" fill="#4a4a4a"/>
  <rect x="43" y="76" width="46" height="4" rx="2" fill="#4a4a4a"/>
  <rect x="33" y="90" width="36" height="5" rx="2.5" fill="#4a4a4a"/>
  <rect x="43" y="102" width="42" height="4" rx="2" fill="#4a4a4a"/>
</svg>
